<mxfile host="app.diagrams.net" modified="2023-10-12T17:10:58.656Z" agent="Mozilla/5.0 (Windows NT 10.0; Win64; x64) AppleWebKit/537.36 (KHTML, like Gecko) Chrome/117.0.0.0 Safari/537.36" version="22.0.4" etag="A_rXP9_4FLzvvPsXTaIy" type="device">
  <diagram id="fOhK0TQgGe1NcuvZ-RGc" name="Page-1">
    <mxGraphModel dx="4097" dy="2577" grid="1" gridSize="10" guides="1" tooltips="1" connect="1" arrows="1" fold="1" page="0" pageScale="1" pageWidth="850" pageHeight="1100" background="none" math="0" shadow="0">
      <root>
        <mxCell id="0" />
        <mxCell id="1" parent="0" />
      </root>
    </mxGraphModel>
  </diagram>
</mxfile>
